<svg width="40" height="37" viewBox="0 0 40 37" fill="none" xmlns="http://www.w3.org/2000/svg">
<g clip-path="url(#clip0_525_1641)">
<path fill-rule="evenodd" clip-rule="evenodd" d="M3.37892 0.00152588H36.6211C36.9792 0.00152588 37.2429 0.28035 37.2689 0.618038L39.9968 36.3881C40.0228 36.7227 39.7038 37.0046 39.349 37.0046H0.647799C0.296237 37.0046 -0.0260291 36.7289 1.2546e-05 36.3881L2.72788 0.618038C2.75392 0.277252 3.02085 0.00152588 3.37892 0.00152588ZM10.8008 7.36559V12.1149V12.118H10.7975C10.7975 14.4229 11.7936 16.5203 13.3887 18.0415C14.987 19.5626 17.1908 20.5106 19.6094 20.5106V20.5075H19.6192H19.6257V20.5106C22.0475 20.5106 24.2513 19.5657 25.8496 18.0446C27.4479 16.5234 28.4408 14.426 28.444 12.1242H28.4375V12.1149V7.30982C27.3633 6.97523 26.5886 6.01484 26.5886 4.88095C26.5886 3.46824 27.7897 2.32196 29.2741 2.32196C30.7585 2.32196 31.9597 3.46824 31.9597 4.88095C31.9597 5.79488 31.4518 6.60037 30.6934 7.05269V12.1149V12.1242H30.6901C30.6869 15.0178 29.4434 17.6511 27.4447 19.5533C25.4395 21.4617 22.6693 22.6483 19.6257 22.6514V22.6576H19.6192H19.6094V22.6514C16.569 22.6483 13.8054 21.4648 11.8001 19.5626C9.79494 17.6542 8.54819 15.0178 8.54494 12.1211H8.54168V12.1149V6.91947C7.89389 6.45166 7.47397 5.71433 7.47397 4.88095C7.47397 3.46824 8.6784 2.32196 10.1628 2.32196C11.6471 2.32196 12.8483 3.46824 12.8483 4.88095C12.8548 6.08609 11.9792 7.09296 10.8008 7.36559Z" fill="#35D780"/>
</g>
<defs>
<clipPath id="clip0_525_1641">
<rect width="40" height="37" rx="2" fill="white"/>
</clipPath>
</defs>
</svg>
