<svg width="24" height="24" viewBox="0 0 24 24" fill="none" xmlns="http://www.w3.org/2000/svg">
<path d="M14.9999 11.9189C14.789 14.3095 13.1193 15.6689 11.2241 15.6689C9.32897 15.6689 8.06756 13.9898 8.2499 11.9189C8.43225 9.84795 9.9899 8.16888 11.8851 8.16888C13.7802 8.16888 15.1818 9.85638 14.9999 11.9189Z" stroke="#535763" stroke-width="1.5" stroke-linecap="round" stroke-linejoin="round"/>
<path d="M14.9893 19.4892C13.6506 20.0517 12.7731 20.1689 11.2731 20.1689C6.71683 20.1689 3.35121 16.4751 3.75011 11.9189C4.14902 7.36263 8.1709 3.66888 12.7271 3.66888C17.8595 3.66888 20.6809 7.03123 20.2843 11.5312C19.9886 14.8908 17.8417 15.8587 16.7176 15.6595C15.6601 15.472 14.7873 14.5148 14.9486 12.6829L15.3461 8.17123" stroke="#535763" stroke-width="1.5" stroke-linecap="round" stroke-linejoin="round"/>
</svg>
