<svg width="13" height="22" viewBox="0 0 13 22" fill="none" xmlns="http://www.w3.org/2000/svg">
<path d="M11.8135 12.0883C12.1014 11.7937 12.263 11.3942 12.263 10.9776C12.263 10.561 12.1014 10.1615 11.8135 9.8669L2.60186 0.440994C2.3123 0.154826 1.92448 -0.00351997 1.52194 5.93873e-05C1.11939 0.00363875 0.734326 0.168857 0.449673 0.460131C0.16502 0.751404 0.00355605 1.14543 5.80376e-05 1.55733C-0.00343997 1.96924 0.151308 2.36607 0.430971 2.66237L8.55721 10.9776L0.430971 19.2928C0.151308 19.5891 -0.00343997 19.9859 5.80376e-05 20.3978C0.00355605 20.8097 0.16502 21.2038 0.449673 21.495C0.734326 21.7863 1.11939 21.9515 1.52194 21.9551C1.92448 21.9587 2.3123 21.8003 2.60186 21.5142L11.8135 12.0883Z" fill="#ADADAD"/>
</svg>
