<svg width="41" height="40" viewBox="0 0 41 40" fill="none" xmlns="http://www.w3.org/2000/svg">
<path d="M32 15.524V10.676C32 8.768 31.264 8 29.4355 8H24.7895C22.961 8 22.225 8.768 22.225 10.676V15.524C22.225 17.432 22.961 18.2 24.7895 18.2H29.4355C31.264 18.2 32 17.432 32 15.524ZM18.775 15.824V10.376C18.775 8.684 18.039 8 16.2105 8H11.5645C9.736 8 9 8.684 9 10.376V15.812C9 17.516 9.736 18.188 11.5645 18.188H16.2105C18.039 18.2 18.775 17.516 18.775 15.824ZM18.775 29.324V24.476C18.775 22.568 18.039 21.8 16.2105 21.8H11.5645C9.736 21.8 9 22.568 9 24.476V29.324C9 31.232 9.736 32 11.5645 32H16.2105C18.039 32 18.775 31.232 18.775 29.324Z" stroke="#8E9B97" stroke-width="1.5" stroke-linecap="round" stroke-linejoin="round"/>
</svg>
