<svg width="32" height="32" viewBox="0 0 32 32" fill="none" xmlns="http://www.w3.org/2000/svg">
<path d="M15.9949 9.54027V12.9455M16.0151 5C12.2948 5 9.2821 8.0473 9.2821 11.8104V13.9578C9.2821 14.6532 8.99903 15.6962 8.64519 16.2893L7.36128 18.4572C6.57273 19.7968 7.11864 21.2897 8.57443 21.7806C13.4081 23.4065 18.6322 23.4065 23.4659 21.7806C23.7848 21.673 24.0758 21.4942 24.3173 21.2576C24.5588 21.021 24.7446 20.7325 24.8611 20.4134C24.9775 20.0944 25.0216 19.7529 24.9901 19.4144C24.9586 19.0758 24.8523 18.7486 24.679 18.4572L23.3951 16.2893C23.0413 15.6962 22.7582 14.643 22.7582 13.9578V11.8104C22.7481 8.06775 19.7152 5 16.0151 5Z" stroke="#0B100C" stroke-width="1.5" stroke-miterlimit="10" stroke-linecap="round"/>
<path d="M19 23C19 24.6486 17.6486 26 16 26C15.1802 26 14.4234 25.6577 13.8829 25.1171C13.3423 24.5766 13 23.8198 13 23" stroke="#0B100C" stroke-width="1.5" stroke-miterlimit="10"/>
<circle cx="22" cy="7" r="3.5" fill="#FF4848" stroke="#FEFEFE"/>
</svg>
