<svg width="24" height="25" viewBox="0 0 24 25" fill="none" xmlns="http://www.w3.org/2000/svg">
<path d="M15.545 14.4877C15.9071 14.4877 16.2006 14.7715 16.2006 15.121C16.2006 15.4709 15.9071 15.7542 15.545 15.7542H5.83113C5.46901 15.7542 5.17553 15.4709 5.17553 15.121C5.17553 14.7715 5.46901 14.4877 5.83113 14.4877H15.545ZM20.3753 4.13129H21.2087C21.7019 4.13129 22.1503 4.32792 22.4746 4.64433L22.5164 4.68898C22.816 5.00238 23.0004 5.4214 23.0004 5.87948V21.7518C23.0004 22.2314 22.7984 22.6684 22.4732 22.9857C22.1503 23.3034 21.7019 23.5 21.2087 23.5H5.41665C4.92605 23.5 4.47857 23.3034 4.15341 22.987L4.15077 22.9848C3.82605 22.6658 3.62541 22.2301 3.62541 21.7518V20.8687H2.79205C2.30145 20.8687 1.85397 20.6721 1.52881 20.3561L1.52617 20.3535C1.20145 20.035 1.00037 19.5988 1.00037 19.121V3.24819C1.00037 2.7695 1.20189 2.33288 1.52617 2.01561L1.52881 2.01304C1.85529 1.6962 2.30189 1.5 2.79205 1.5H18.5841C19.0773 1.5 19.5257 1.69663 19.85 2.01304L19.8913 2.05768C20.191 2.37109 20.3753 2.7901 20.3753 3.24819V4.13129ZM4.11733 19.5833C4.17177 19.5695 4.22782 19.5625 4.28409 19.5627C4.34173 19.5627 4.39717 19.5696 4.45041 19.5833H18.5841C18.7134 19.5833 18.8322 19.531 18.918 19.4468C19.0052 19.3648 19.058 19.2489 19.058 19.121V3.24819C19.058 3.13098 19.014 3.02451 18.9422 2.9438L18.918 2.9219C18.8322 2.83776 18.7134 2.78538 18.5841 2.78538H2.79205C2.66093 2.78538 2.54213 2.8369 2.45765 2.91933L2.45501 2.9219C2.41124 2.9648 2.37659 3.0157 2.35303 3.07169C2.32948 3.12768 2.31748 3.18766 2.31773 3.24819V19.121C2.31773 19.2489 2.37053 19.3648 2.45501 19.4468L2.45765 19.4494C2.50164 19.492 2.55381 19.5258 2.61119 19.5488C2.66857 19.5718 2.73002 19.5835 2.79205 19.5833H4.11733ZM4.94277 20.8687V21.7518C4.94277 21.8802 4.99557 21.9961 5.08005 22.0781L5.08269 22.0807C5.16673 22.1631 5.28553 22.2146 5.41665 22.2146H21.2087C21.338 22.2146 21.4568 22.1622 21.5431 22.0781C21.6302 21.9961 21.683 21.8802 21.683 21.7518V5.87948C21.683 5.76227 21.639 5.6558 21.5668 5.57509L21.5431 5.5532C21.4568 5.46905 21.338 5.41667 21.2087 5.41667H20.3753V19.121C20.3753 19.6001 20.1734 20.0371 19.8486 20.3548C19.5257 20.6721 19.0773 20.8687 18.5841 20.8687H4.94277ZM15.545 6.61447C15.9071 6.61447 16.2006 6.89825 16.2006 7.24772C16.2006 7.59761 15.9071 7.88139 15.545 7.88139H5.83113C5.46901 7.88139 5.17553 7.59761 5.17553 7.24772C5.17553 6.89825 5.46901 6.61447 5.83113 6.61447H15.545ZM15.545 10.5513C15.9071 10.5513 16.2006 10.8347 16.2006 11.1846C16.2006 11.5345 15.9071 11.8178 15.545 11.8178H5.83113C5.46901 11.8178 5.17553 11.5345 5.17553 11.1846C5.17553 10.8347 5.46901 10.5513 5.83113 10.5513H15.545Z" fill="#26AE65"/>
</svg>
