<svg width="32" height="32" viewBox="0 0 32 32" fill="none" xmlns="http://www.w3.org/2000/svg">
<g clip-path="url(#clip0_586_4879)" filter="url(#filter0_d_586_4879)">
<path d="M15.9999 13.43C16.4096 13.43 16.8153 13.3493 17.1939 13.1925C17.5724 13.0357 17.9163 12.8059 18.2061 12.5162C18.4958 12.2265 18.7256 11.8825 18.8824 11.504C19.0392 11.1254 19.1199 10.7197 19.1199 10.31C19.1199 9.90028 19.0392 9.49457 18.8824 9.11603C18.7256 8.73749 18.4958 8.39355 18.2061 8.10383C17.9163 7.81411 17.5724 7.58429 17.1939 7.4275C16.8153 7.2707 16.4096 7.19 15.9999 7.19C15.1724 7.19 14.3788 7.51872 13.7937 8.10383C13.2086 8.68894 12.8799 9.48253 12.8799 10.31C12.8799 11.1375 13.2086 11.9311 13.7937 12.5162C14.3788 13.1013 15.1724 13.43 15.9999 13.43Z" stroke="#26AE65" stroke-width="1.5"/>
<path d="M7.61995 8.49C9.58995 -0.169998 22.42 -0.159997 24.38 8.5C25.53 13.58 22.37 17.88 19.6 20.54C18.632 21.4735 17.3397 21.9952 15.995 21.9952C14.6502 21.9952 13.3579 21.4735 12.39 20.54C9.62995 17.88 6.46995 13.57 7.61995 8.49Z" stroke="#26AE65" stroke-width="1.5"/>
</g>
<defs>
<filter id="filter0_d_586_4879" x="0" y="0" width="32" height="32" filterUnits="userSpaceOnUse" color-interpolation-filters="sRGB">
<feFlood flood-opacity="0" result="BackgroundImageFix"/>
<feColorMatrix in="SourceAlpha" type="matrix" values="0 0 0 0 0 0 0 0 0 0 0 0 0 0 0 0 0 0 127 0" result="hardAlpha"/>
<feOffset dy="4"/>
<feGaussianBlur stdDeviation="2"/>
<feComposite in2="hardAlpha" operator="out"/>
<feColorMatrix type="matrix" values="0 0 0 0 0 0 0 0 0 0 0 0 0 0 0 0 0 0 0.25 0"/>
<feBlend mode="normal" in2="BackgroundImageFix" result="effect1_dropShadow_586_4879"/>
<feBlend mode="normal" in="SourceGraphic" in2="effect1_dropShadow_586_4879" result="shape"/>
</filter>
<clipPath id="clip0_586_4879">
<rect width="24" height="24" fill="white" transform="translate(4)"/>
</clipPath>
</defs>
</svg>
