<svg width="80" height="28" viewBox="0 0 80 28" fill="none" xmlns="http://www.w3.org/2000/svg">
<g clip-path="url(#clip0_167_3566)">
<path fill-rule="evenodd" clip-rule="evenodd" d="M16.6608 4.36219C17.1739 4.34004 17.5787 4.5204 17.9866 4.78145C18.5044 5.11211 19.088 5.7671 19.8082 6.18161C20.8202 6.76541 22.6967 5.96012 23.6569 7.39984C24.217 8.23835 24.2437 8.89651 24.2845 9.54676C24.33 10.2476 24.4508 10.8931 25.1631 11.8424C26.3414 13.4134 26.5862 14.4592 25.979 15.5493C25.5647 16.2929 24.694 16.7058 24.4916 17.1757C24.0632 18.1772 24.5371 18.9318 23.9503 20.0994C23.5423 20.9095 22.9132 21.4426 22.0753 21.7148C21.3693 21.9442 20.6586 21.6119 20.0937 21.8524C19.099 22.2732 18.3663 23.2526 17.574 23.501C17.268 23.5959 16.9636 23.6433 16.6608 23.6418C16.3564 23.6433 16.052 23.5975 15.7477 23.501C14.9569 23.2526 14.2226 22.2748 13.2279 21.8524C12.6615 21.6119 11.9523 21.9442 11.2463 21.7148C10.4084 21.4426 9.77928 20.9095 9.37135 20.0994C8.78298 18.9318 9.25838 18.1772 8.82848 17.1757C8.62609 16.7058 7.7553 16.2929 7.3411 15.5493C6.7339 14.4592 6.98023 13.4134 8.15696 11.8424C8.86928 10.8931 8.99009 10.2476 9.03559 9.54676C9.07795 8.89651 9.10306 8.23835 9.66318 7.39984C10.6234 5.96012 12.4999 6.76541 13.5119 6.18161C14.232 5.7671 14.8141 5.11211 15.3335 4.78145C15.743 4.5204 16.1478 4.34004 16.6608 4.36219ZM14.9961 12.8882L16.2293 14.0716L18.3522 11.8962C18.5624 11.681 18.6942 11.5086 18.9531 11.7775L19.7941 12.6461C20.0702 12.9214 20.0561 13.0828 19.7956 13.3391L16.7094 16.3941C16.1603 16.9368 16.256 16.97 15.699 16.4131L13.5809 14.2883C13.4648 14.1618 13.4774 14.0336 13.6044 13.907L14.5803 12.8866C14.7263 12.7315 14.8439 12.741 14.9961 12.8882ZM16.6326 8.72248C19.6058 8.72248 22.0142 11.1526 22.0142 14.1491C22.0142 17.1472 19.6042 19.5757 16.6326 19.5757C13.6594 19.5757 11.251 17.1456 11.251 14.1491C11.251 11.151 13.6609 8.72248 16.6326 8.72248Z" fill="#26AE65"/>
</g>
<path d="M33.8262 7.39184C33.721 7.54958 33.5574 7.78619 33.3354 8.10168C32.868 7.8972 32.4503 7.79496 32.0822 7.79496C31.5973 7.79496 31.3549 7.97607 31.3549 8.33829C31.3549 8.50187 31.4104 8.63041 31.5214 8.72388C31.6324 8.81736 31.8632 8.93128 32.2137 9.06566C32.8447 9.31103 33.2974 9.57686 33.572 9.86313C33.8525 10.1494 33.9927 10.4941 33.9927 10.8972C33.9927 11.4639 33.7794 11.9021 33.3529 12.2117C33.0024 12.463 32.5671 12.5886 32.0472 12.5886C31.4337 12.5886 30.7794 12.3666 30.0842 11.9225L30.5925 11.2127C30.9313 11.4405 31.3666 11.5545 31.8982 11.5545C32.5 11.5545 32.8008 11.312 32.8008 10.8271C32.8008 10.5116 32.4766 10.2429 31.8281 10.0209C30.7823 9.67033 30.2594 9.10947 30.2594 8.33829C30.2594 7.87091 30.4347 7.49992 30.7852 7.22533C31.1124 6.96243 31.5477 6.83098 32.091 6.83098C32.7103 6.83098 33.2887 7.01793 33.8262 7.39184ZM38.3261 12.4834H37.441L37.3533 12.1066C36.9677 12.4279 36.5763 12.5886 36.179 12.5886C35.2968 12.5886 34.8557 12.1592 34.8557 11.3003C34.8557 10.8738 35.0398 10.5408 35.4078 10.3013C35.7818 10.0559 36.3338 9.93324 37.0641 9.93324H37.2482V9.91571C37.2482 9.66449 37.1956 9.49214 37.0904 9.39867C36.9853 9.30519 36.7954 9.25845 36.5208 9.25845C36.1352 9.25845 35.7818 9.38114 35.4604 9.62652C35.3553 9.43372 35.2559 9.24385 35.1625 9.05689C35.4955 8.79983 35.7847 8.62748 36.03 8.53985C36.2813 8.44637 36.5792 8.39963 36.9239 8.39963C37.8587 8.39963 38.3261 8.98386 38.3261 10.1523V12.4834ZM37.2131 10.608H37.0817C36.7487 10.608 36.4799 10.6664 36.2754 10.7833C36.0709 10.9001 35.9687 11.055 35.9687 11.2478C35.9687 11.61 36.1264 11.7911 36.4419 11.7911C36.6347 11.7911 36.8042 11.7356 36.9502 11.6246C37.0963 11.5136 37.1839 11.3734 37.2131 11.2039V10.608ZM40.7562 6.83098V12.4834H39.652V7.40937L40.7562 6.83098ZM45.7608 10.8534H43.0266C43.05 11.1221 43.158 11.3471 43.3508 11.5282C43.5495 11.7035 43.7832 11.7911 44.0519 11.7911C44.4317 11.7911 44.8289 11.6742 45.2437 11.4405L45.5242 12.0277C45.1035 12.4016 44.5777 12.5886 43.9468 12.5886C43.2691 12.5886 42.7403 12.3958 42.3606 12.0102C41.9984 11.648 41.8172 11.1484 41.8172 10.5116C41.8172 9.8865 42.0217 9.36946 42.4307 8.9605C42.7987 8.58659 43.2661 8.39963 43.8328 8.39963C44.4638 8.39963 44.9546 8.61288 45.3051 9.03937C45.6089 9.40159 45.7608 9.87189 45.7608 10.4503V10.8534ZM42.9653 10.0384H44.6566C44.6274 9.46585 44.3499 9.17958 43.8241 9.17958C43.3158 9.17958 43.0295 9.46585 42.9653 10.0384ZM46.5208 9.39867V8.5048H47.143V7.97899C47.143 7.21365 47.4993 6.83098 48.2121 6.83098C48.6795 6.83098 49.1147 6.98872 49.5179 7.3042L49.1147 7.88259C48.881 7.73069 48.6824 7.65474 48.5188 7.65474C48.3377 7.65474 48.2472 7.8008 48.2472 8.09291V8.5048H49.3338V9.39867H48.2472V12.4834H47.143V9.39867H46.5208ZM51.8804 8.39963C52.5347 8.39963 53.043 8.63041 53.4052 9.09195C53.709 9.47754 53.8609 9.94784 53.8609 10.5029C53.8609 11.1514 53.636 11.6772 53.1861 12.0803C52.8122 12.4191 52.377 12.5886 51.8804 12.5886C51.302 12.5886 50.8171 12.3724 50.4256 11.9401C50.0751 11.5486 49.8998 11.0696 49.8998 10.5029C49.8998 9.86021 50.0956 9.34024 50.487 8.94297C50.8434 8.58075 51.3078 8.39963 51.8804 8.39963ZM51.8804 11.7648C52.4471 11.7648 52.7304 11.3442 52.7304 10.5029C52.7304 9.62652 52.4471 9.18834 51.8804 9.18834C51.3137 9.18834 51.0303 9.62652 51.0303 10.5029C51.0303 11.3442 51.3137 11.7648 51.8804 11.7648ZM55.8649 8.5048L55.97 8.85533C56.0285 8.73265 56.1395 8.62748 56.3031 8.53985C56.4725 8.44637 56.6448 8.39963 56.8201 8.39963C57.3459 8.39963 57.7373 8.64793 57.9944 9.14453L57.0655 9.65281C56.8727 9.4308 56.6682 9.3198 56.452 9.3198C56.2534 9.3198 56.1073 9.42204 56.0139 9.62652V12.4834H54.9272V8.5048H55.8649ZM61.7523 12.4834H60.8672L60.7796 12.1066C60.394 12.4279 60.0025 12.5886 59.6052 12.5886C58.7231 12.5886 58.282 12.1592 58.282 11.3003C58.282 10.8738 58.466 10.5408 58.8341 10.3013C59.208 10.0559 59.7601 9.93324 60.4904 9.93324H60.6744V9.91571C60.6744 9.66449 60.6218 9.49214 60.5166 9.39867C60.4115 9.30519 60.2216 9.25845 59.947 9.25845C59.5614 9.25845 59.208 9.38114 58.8866 9.62652C58.7815 9.43372 58.6822 9.24385 58.5887 9.05689C58.9217 8.79983 59.2109 8.62748 59.4563 8.53985C59.7075 8.44637 60.0054 8.39963 60.3501 8.39963C61.2849 8.39963 61.7523 8.98386 61.7523 10.1523V12.4834ZM60.6393 10.608H60.5079C60.1749 10.608 59.9061 10.6664 59.7016 10.7833C59.4972 10.9001 59.3949 11.055 59.3949 11.2478C59.3949 11.61 59.5527 11.7911 59.8682 11.7911C60.0609 11.7911 60.2304 11.7356 60.3764 11.6246C60.5225 11.5136 60.6101 11.3734 60.6393 11.2039V10.608ZM35.0087 18.4834V12.9449C35.0905 12.9274 35.3212 12.904 35.701 12.8748C36.0807 12.8456 36.3699 12.831 36.5686 12.831C37.9824 12.831 38.6893 13.4094 38.6893 14.5661C38.6893 15.2847 38.4439 15.8105 37.9532 16.1436C37.626 16.3714 37.2404 16.4853 36.7964 16.4853C36.4459 16.4853 36.2326 16.462 36.1567 16.4152V18.4834H35.0087ZM36.1567 13.8125V15.4863C36.3086 15.5447 36.4985 15.5739 36.7263 15.5739C36.96 15.5739 37.144 15.4921 37.2784 15.3286C37.4128 15.1591 37.48 14.9284 37.48 14.6362C37.48 14.0462 37.22 13.7511 36.7 13.7511C36.4021 13.7511 36.2209 13.7716 36.1567 13.8125ZM40.7083 14.5048L40.8135 14.8553C40.8719 14.7326 40.9829 14.6275 41.1465 14.5398C41.3159 14.4464 41.4883 14.3996 41.6636 14.3996C42.1894 14.3996 42.5808 14.6479 42.8379 15.1445L41.9089 15.6528C41.7161 15.4308 41.5117 15.3198 41.2955 15.3198C41.0969 15.3198 40.9508 15.422 40.8573 15.6265V18.4834H39.7707V14.5048H40.7083ZM44.5431 14.5048V18.4834H43.4301V14.5048H44.5431ZM43.2986 13.4882C43.2986 13.3013 43.3629 13.1406 43.4914 13.0062C43.6258 12.866 43.7836 12.7959 43.9647 12.7959C44.1575 12.7959 44.321 12.8631 44.4554 12.9975C44.5956 13.1319 44.6657 13.2954 44.6657 13.4882C44.6657 13.6927 44.5986 13.8592 44.4642 13.9878C44.3357 14.1163 44.1691 14.1805 43.9647 14.1805C43.7719 14.1805 43.6112 14.1163 43.4827 13.9878C43.36 13.8534 43.2986 13.6869 43.2986 13.4882ZM46.8768 14.8904C47.204 14.5632 47.6129 14.3996 48.1037 14.3996C48.4426 14.3996 48.7405 14.4727 48.9976 14.6187C49.2605 14.7589 49.4416 14.9488 49.5409 15.1883C49.6694 14.9547 49.8681 14.7648 50.1368 14.6187C50.4114 14.4727 50.7094 14.3996 51.0307 14.3996C51.9655 14.3996 52.4328 14.9663 52.4328 16.0997V18.4834H51.3199V16.3977C51.3199 16.0063 51.2615 15.7317 51.1446 15.5739C51.0336 15.4104 50.8437 15.3286 50.575 15.3286C50.1894 15.3286 49.8768 15.4805 49.6373 15.7843V18.4834H48.5331V16.275C48.5331 15.9303 48.4718 15.6879 48.3491 15.5476C48.2264 15.4016 48.0161 15.3286 47.7181 15.3286C47.5428 15.3286 47.3763 15.3548 47.2186 15.4074C47.0667 15.46 46.9674 15.5243 46.9206 15.6002V18.4834H45.8164V14.5048H46.7541L46.833 14.8904H46.8768ZM57.3938 16.8534H54.6596C54.683 17.1221 54.791 17.3471 54.9838 17.5282C55.1825 17.7035 55.4162 17.7911 55.6849 17.7911C56.0647 17.7911 56.4619 17.6742 56.8767 17.4405L57.1572 18.0277C56.7365 18.4016 56.2107 18.5886 55.5798 18.5886C54.9021 18.5886 54.3733 18.3958 53.9936 18.0102C53.6314 17.648 53.4502 17.1484 53.4502 16.5116C53.4502 15.8865 53.6547 15.3695 54.0637 14.9605C54.4317 14.5866 54.8991 14.3996 55.4658 14.3996C56.0968 14.3996 56.5876 14.6129 56.9381 15.0394C57.2419 15.4016 57.3938 15.8719 57.3938 16.4503V16.8534ZM54.5983 16.0384H56.2896C56.2604 15.4659 55.9829 15.1796 55.4571 15.1796C54.9488 15.1796 54.6625 15.4659 54.5983 16.0384Z" fill="#26AE65"/>
<defs>
<clipPath id="clip0_167_3566">
<rect width="19.2796" height="19.2796" fill="white" transform="translate(7.02148 4.36035)"/>
</clipPath>
</defs>
</svg>
