<svg width="32" height="32" viewBox="0 0 32 32" fill="none" xmlns="http://www.w3.org/2000/svg">
<g clip-path="url(#clip0_654_5534)">
<path d="M6.98931 6.413H25.6697C27.8789 6.413 29.6697 8.20386 29.6697 10.413V18.6029C29.6697 20.812 27.8789 22.6029 25.6697 22.6029H13.2426C11.3063 22.6029 9.64795 21.2159 9.30564 19.31L6.98931 6.413ZM6.98931 6.413L6.05707 3.67743C5.91902 3.27234 5.53849 3 5.11052 3H2.33691" stroke="#0B100C" stroke-width="1.5" stroke-linecap="round"/>
<path d="M23.2 12.9336C23.2 13.4589 23.0965 13.979 22.8955 14.4643C22.6944 14.9496 22.3998 15.3906 22.0284 15.762C21.6569 16.1335 21.216 16.4281 20.7307 16.6291C20.2454 16.8301 19.7252 16.9336 19.2 16.9336C18.6747 16.9336 18.1545 16.8301 17.6692 16.6291C17.1839 16.4281 16.743 16.1335 16.3715 15.762C16.0001 15.3906 15.7055 14.9496 15.5044 14.4643C15.3034 13.979 15.2 13.4589 15.2 12.9336" stroke="#0B100C" stroke-width="1.5" stroke-linecap="round" stroke-linejoin="round"/>
<path d="M14.6665 27.334H14.6798" stroke="#0B100C" stroke-width="3" stroke-linecap="round"/>
<path d="M25.3333 27.334H25.3466" stroke="#0B100C" stroke-width="3" stroke-linecap="round"/>
<circle cx="27" cy="5" r="3.5" fill="#FF4848" stroke="#FEFEFE"/>
</g>
<defs>
<clipPath id="clip0_654_5534">
<rect width="32" height="32" fill="white"/>
</clipPath>
</defs>
</svg>
