<svg width="16" height="16" viewBox="0 0 16 16" fill="none" xmlns="http://www.w3.org/2000/svg">
<path d="M12.4389 9.74C12.2446 9.92825 12.1554 10.2005 12.1996 10.4675L12.8664 14.1575C12.9226 14.4702 12.7906 14.7868 12.5289 14.9675C12.2724 15.155 11.9311 15.1775 11.6514 15.0275L8.32963 13.295C8.21413 13.2335 8.08588 13.2005 7.95463 13.1968H7.75138C7.68087 13.2073 7.61188 13.2297 7.54888 13.2642L4.22637 15.005C4.06212 15.0875 3.87612 15.1168 3.69387 15.0875C3.24987 15.0035 2.95362 14.5805 3.02637 14.1343L3.69387 10.4443C3.73812 10.175 3.64887 9.90125 3.45462 9.71L0.746375 7.085C0.519875 6.86525 0.441125 6.53525 0.544625 6.2375C0.645125 5.9405 0.901625 5.72375 1.21137 5.675L4.93887 5.13425C5.22237 5.105 5.47137 4.9325 5.59888 4.6775L7.24137 1.31C7.28038 1.235 7.33063 1.166 7.39138 1.1075L7.45887 1.055C7.49412 1.016 7.53463 0.98375 7.57963 0.9575L7.66138 0.9275L7.78888 0.875H8.10462C8.38662 0.90425 8.63488 1.073 8.76462 1.325L10.4289 4.6775C10.5489 4.92275 10.7821 5.093 11.0514 5.13425L14.7789 5.675C15.0939 5.72 15.3571 5.9375 15.4614 6.2375C15.5596 6.53825 15.4749 6.86825 15.2439 7.085L12.4389 9.74Z" fill="#FBB021"/>
</svg>
